<mxfile host="app.diagrams.net" agent="Mozilla/5.0 (Windows NT 10.0; Win64; x64) AppleWebKit/537.36 (KHTML, like Gecko) Chrome/130.0.0.0 Safari/537.36" version="24.8.4">
  <diagram name="PÃ¡gina-1" id="BCHF-5Q5EMjY2CzNp5F7">
    <mxGraphModel dx="1313" dy="724" grid="0" gridSize="10" guides="1" tooltips="1" connect="1" arrows="1" fold="1" page="1" pageScale="1" pageWidth="700" pageHeight="1000" math="0" shadow="0">
      <root>
        <mxCell id="0" />
        <mxCell id="1" parent="0" />
        <mxCell id="y9TVDUa1JKEA_eRrkemc-3" value="" style="shape=table;startSize=34;container=1;collapsible=0;childLayout=tableLayout;strokeColor=default;fontSize=16;" vertex="1" parent="1">
          <mxGeometry x="117" y="364" width="471" height="309" as="geometry" />
        </mxCell>
        <mxCell id="y9TVDUa1JKEA_eRrkemc-61" style="shape=tableRow;horizontal=0;startSize=0;swimlaneHead=0;swimlaneBody=0;strokeColor=inherit;top=0;left=0;bottom=0;right=0;collapsible=0;dropTarget=0;fillColor=none;points=[[0,0.5],[1,0.5]];portConstraint=eastwest;fontSize=16;" vertex="1" parent="y9TVDUa1JKEA_eRrkemc-3">
          <mxGeometry y="34" width="471" height="54" as="geometry" />
        </mxCell>
        <mxCell id="y9TVDUa1JKEA_eRrkemc-62" value="Daltonismo" style="shape=partialRectangle;html=1;whiteSpace=wrap;connectable=0;strokeColor=inherit;overflow=hidden;fillColor=none;top=0;left=0;bottom=0;right=0;pointerEvents=1;fontSize=16;" vertex="1" parent="y9TVDUa1JKEA_eRrkemc-61">
          <mxGeometry width="239" height="54" as="geometry">
            <mxRectangle width="239" height="54" as="alternateBounds" />
          </mxGeometry>
        </mxCell>
        <mxCell id="y9TVDUa1JKEA_eRrkemc-63" value="Si o No" style="shape=partialRectangle;html=1;whiteSpace=wrap;connectable=0;strokeColor=inherit;overflow=hidden;fillColor=none;top=0;left=0;bottom=0;right=0;pointerEvents=1;fontSize=16;" vertex="1" parent="y9TVDUa1JKEA_eRrkemc-61">
          <mxGeometry x="239" width="232" height="54" as="geometry">
            <mxRectangle width="232" height="54" as="alternateBounds" />
          </mxGeometry>
        </mxCell>
        <mxCell id="y9TVDUa1JKEA_eRrkemc-43" style="shape=tableRow;horizontal=0;startSize=0;swimlaneHead=0;swimlaneBody=0;strokeColor=inherit;top=0;left=0;bottom=0;right=0;collapsible=0;dropTarget=0;fillColor=none;points=[[0,0.5],[1,0.5]];portConstraint=eastwest;fontSize=16;" vertex="1" parent="y9TVDUa1JKEA_eRrkemc-3">
          <mxGeometry y="88" width="471" height="56" as="geometry" />
        </mxCell>
        <mxCell id="y9TVDUa1JKEA_eRrkemc-52" value="Efecto de sonido" style="shape=partialRectangle;html=1;whiteSpace=wrap;connectable=0;strokeColor=inherit;overflow=hidden;fillColor=none;top=0;left=0;bottom=0;right=0;pointerEvents=1;fontSize=16;" vertex="1" parent="y9TVDUa1JKEA_eRrkemc-43">
          <mxGeometry width="239" height="56" as="geometry">
            <mxRectangle width="239" height="56" as="alternateBounds" />
          </mxGeometry>
        </mxCell>
        <mxCell id="y9TVDUa1JKEA_eRrkemc-44" value="Si o No" style="shape=partialRectangle;html=1;whiteSpace=wrap;connectable=0;strokeColor=inherit;overflow=hidden;fillColor=none;top=0;left=0;bottom=0;right=0;pointerEvents=1;fontSize=16;" vertex="1" parent="y9TVDUa1JKEA_eRrkemc-43">
          <mxGeometry x="239" width="232" height="56" as="geometry">
            <mxRectangle width="232" height="56" as="alternateBounds" />
          </mxGeometry>
        </mxCell>
        <mxCell id="y9TVDUa1JKEA_eRrkemc-40" style="shape=tableRow;horizontal=0;startSize=0;swimlaneHead=0;swimlaneBody=0;strokeColor=inherit;top=0;left=0;bottom=0;right=0;collapsible=0;dropTarget=0;fillColor=none;points=[[0,0.5],[1,0.5]];portConstraint=eastwest;fontSize=16;" vertex="1" parent="y9TVDUa1JKEA_eRrkemc-3">
          <mxGeometry y="144" width="471" height="55" as="geometry" />
        </mxCell>
        <mxCell id="y9TVDUa1JKEA_eRrkemc-53" value="Animaciones" style="shape=partialRectangle;html=1;whiteSpace=wrap;connectable=0;strokeColor=inherit;overflow=hidden;fillColor=none;top=0;left=0;bottom=0;right=0;pointerEvents=1;fontSize=16;" vertex="1" parent="y9TVDUa1JKEA_eRrkemc-40">
          <mxGeometry width="239" height="55" as="geometry">
            <mxRectangle width="239" height="55" as="alternateBounds" />
          </mxGeometry>
        </mxCell>
        <mxCell id="y9TVDUa1JKEA_eRrkemc-41" value="Si , No , Reducidas" style="shape=partialRectangle;html=1;whiteSpace=wrap;connectable=0;strokeColor=inherit;overflow=hidden;fillColor=none;top=0;left=0;bottom=0;right=0;pointerEvents=1;fontSize=16;" vertex="1" parent="y9TVDUa1JKEA_eRrkemc-40">
          <mxGeometry x="239" width="232" height="55" as="geometry">
            <mxRectangle width="232" height="55" as="alternateBounds" />
          </mxGeometry>
        </mxCell>
        <mxCell id="y9TVDUa1JKEA_eRrkemc-37" style="shape=tableRow;horizontal=0;startSize=0;swimlaneHead=0;swimlaneBody=0;strokeColor=inherit;top=0;left=0;bottom=0;right=0;collapsible=0;dropTarget=0;fillColor=none;points=[[0,0.5],[1,0.5]];portConstraint=eastwest;fontSize=16;" vertex="1" parent="y9TVDUa1JKEA_eRrkemc-3">
          <mxGeometry y="199" width="471" height="55" as="geometry" />
        </mxCell>
        <mxCell id="y9TVDUa1JKEA_eRrkemc-54" value="Tiempo" style="shape=partialRectangle;html=1;whiteSpace=wrap;connectable=0;strokeColor=inherit;overflow=hidden;fillColor=none;top=0;left=0;bottom=0;right=0;pointerEvents=1;fontSize=16;" vertex="1" parent="y9TVDUa1JKEA_eRrkemc-37">
          <mxGeometry width="239" height="55" as="geometry">
            <mxRectangle width="239" height="55" as="alternateBounds" />
          </mxGeometry>
        </mxCell>
        <mxCell id="y9TVDUa1JKEA_eRrkemc-38" value="Ajustable" style="shape=partialRectangle;html=1;whiteSpace=wrap;connectable=0;strokeColor=inherit;overflow=hidden;fillColor=none;top=0;left=0;bottom=0;right=0;pointerEvents=1;fontSize=16;" vertex="1" parent="y9TVDUa1JKEA_eRrkemc-37">
          <mxGeometry x="239" width="232" height="55" as="geometry">
            <mxRectangle width="232" height="55" as="alternateBounds" />
          </mxGeometry>
        </mxCell>
        <mxCell id="y9TVDUa1JKEA_eRrkemc-34" style="shape=tableRow;horizontal=0;startSize=0;swimlaneHead=0;swimlaneBody=0;strokeColor=inherit;top=0;left=0;bottom=0;right=0;collapsible=0;dropTarget=0;fillColor=none;points=[[0,0.5],[1,0.5]];portConstraint=eastwest;fontSize=16;" vertex="1" parent="y9TVDUa1JKEA_eRrkemc-3">
          <mxGeometry y="254" width="471" height="55" as="geometry" />
        </mxCell>
        <mxCell id="y9TVDUa1JKEA_eRrkemc-55" value="Cantidad de imagenes" style="shape=partialRectangle;html=1;whiteSpace=wrap;connectable=0;strokeColor=inherit;overflow=hidden;fillColor=none;top=0;left=0;bottom=0;right=0;pointerEvents=1;fontSize=16;" vertex="1" parent="y9TVDUa1JKEA_eRrkemc-34">
          <mxGeometry width="239" height="55" as="geometry">
            <mxRectangle width="239" height="55" as="alternateBounds" />
          </mxGeometry>
        </mxCell>
        <mxCell id="y9TVDUa1JKEA_eRrkemc-35" value="Ajustable" style="shape=partialRectangle;html=1;whiteSpace=wrap;connectable=0;strokeColor=inherit;overflow=hidden;fillColor=none;top=0;left=0;bottom=0;right=0;pointerEvents=1;fontSize=16;" vertex="1" parent="y9TVDUa1JKEA_eRrkemc-34">
          <mxGeometry x="239" width="232" height="55" as="geometry">
            <mxRectangle width="232" height="55" as="alternateBounds" />
          </mxGeometry>
        </mxCell>
        <mxCell id="UvF5SmiHXKKENpEFAL-r-3" value="&lt;div style=&quot;&quot;&gt;&lt;span class=&quot;notion-enable-hover&quot; data-token-index=&quot;0&quot; style=&quot;font-weight: 600; font-size: 33px;&quot;&gt;Configuracion&lt;/span&gt;&lt;/div&gt;" style="text;html=1;align=center;verticalAlign=middle;whiteSpace=wrap;rounded=0;" parent="1" vertex="1">
          <mxGeometry x="152" y="8" width="392" height="167" as="geometry" />
        </mxCell>
        <mxCell id="UvF5SmiHXKKENpEFAL-r-7" value="&lt;font style=&quot;font-size: 24px;&quot;&gt;Volver al menu&lt;/font&gt;" style="rounded=0;whiteSpace=wrap;html=1;" parent="1" vertex="1">
          <mxGeometry x="290" y="860" width="120" height="80" as="geometry" />
        </mxCell>
        <mxCell id="y9TVDUa1JKEA_eRrkemc-119" value="&lt;font style=&quot;font-size: 24px;&quot;&gt;Por defecto&lt;/font&gt;" style="rounded=0;whiteSpace=wrap;html=1;" vertex="1" parent="1">
          <mxGeometry x="120" y="758" width="120" height="80" as="geometry" />
        </mxCell>
        <mxCell id="y9TVDUa1JKEA_eRrkemc-120" value="&lt;font style=&quot;font-size: 24px;&quot;&gt;Aplicar cambios&lt;/font&gt;" style="rounded=0;whiteSpace=wrap;html=1;" vertex="1" parent="1">
          <mxGeometry x="468" y="758" width="120" height="80" as="geometry" />
        </mxCell>
        <mxCell id="y9TVDUa1JKEA_eRrkemc-124" value="&lt;font style=&quot;font-size: 24px;&quot;&gt;Facil&lt;/font&gt;" style="rounded=0;whiteSpace=wrap;html=1;" vertex="1" parent="1">
          <mxGeometry x="117" y="165" width="120" height="80" as="geometry" />
        </mxCell>
        <mxCell id="y9TVDUa1JKEA_eRrkemc-125" value="&lt;font style=&quot;font-size: 24px;&quot;&gt;Media&lt;/font&gt;" style="rounded=0;whiteSpace=wrap;html=1;" vertex="1" parent="1">
          <mxGeometry x="292.5" y="165" width="120" height="80" as="geometry" />
        </mxCell>
        <mxCell id="y9TVDUa1JKEA_eRrkemc-126" value="&lt;font style=&quot;font-size: 24px;&quot;&gt;Dificil&lt;/font&gt;" style="rounded=0;whiteSpace=wrap;html=1;" vertex="1" parent="1">
          <mxGeometry x="468" y="171" width="120" height="80" as="geometry" />
        </mxCell>
      </root>
    </mxGraphModel>
  </diagram>
</mxfile>
